<?xml version="1.0" encoding="UTF-8"?>
<svg version="1.1" xmlns="http://www.w3.org/2000/svg" width="500" height="500">
<path d="M0 0 C1.93940964 -0.00786278 1.93940964 -0.00786278 3.91799927 -0.0158844 C6.64286126 -0.0247687 9.36742946 -0.02244724 12.09228516 -0.01245117 C15.55410609 -0.0009781 19.01490433 -0.02116975 22.47659111 -0.05036831 C25.81777791 -0.07331598 29.15873673 -0.0662551 32.5 -0.0625 C33.72741913 -0.07373398 34.95483826 -0.08496796 36.2194519 -0.09654236 C44.55653751 -0.02977428 53.12511035 0.65632445 59.61959839 6.41798401 C64.73601819 11.89142001 66.63490666 16.57095249 66.62573242 24.10400391 C66.62763077 24.75340439 66.62952911 25.40280487 66.63148499 26.07188416 C66.63517177 28.20560001 66.62452027 30.33897096 66.61328125 32.47265625 C66.61208832 33.96047933 66.61163653 35.44830317 66.6118927 36.93612671 C66.61033155 40.04796084 66.60206884 43.15967932 66.58862305 46.27148438 C66.57160418 50.26072601 66.56780979 54.24984107 66.56856823 58.23911476 C66.56829642 61.30857553 66.56281395 64.37800861 66.55556679 67.44746017 C66.5523849 68.91867234 66.55041383 70.38988764 66.54967308 71.86110306 C66.5475061 73.91478074 66.538755 75.96832387 66.52807617 78.02197266 C66.52426437 79.1904776 66.52045258 80.35898254 66.51652527 81.56289673 C66.3828125 84.43359375 66.3828125 84.43359375 65.3828125 87.43359375 C65.90921326 87.27224442 66.43561401 87.11089508 66.97796631 86.94465637 C69.97910599 86.30687325 72.79082487 86.28270321 75.86035156 86.2565918 C77.83325165 86.23733894 77.83325165 86.23733894 79.8460083 86.21769714 C81.28014751 86.20952828 82.71429101 86.20208483 84.1484375 86.1953125 C84.87396568 86.19123697 85.59949387 86.18716145 86.34700775 86.18296242 C90.18820405 86.16213363 94.02936499 86.14781885 97.87060547 86.13842773 C101.82261329 86.127377 105.77405596 86.09298406 109.72586441 86.05325603 C112.7783711 86.02701568 115.83074465 86.01872933 118.88335419 86.01514626 C120.33931032 86.01029848 121.79526123 85.99873641 123.25110626 85.98010826 C132.23996176 85.87225102 139.33567669 85.99055527 146.40625 92.21484375 C146.85226562 92.78203125 147.29828125 93.34921875 147.7578125 93.93359375 C148.45003906 94.784375 148.45003906 94.784375 149.15625 95.65234375 C152.98820436 101.21722015 153.50308868 106.77072049 153.52807617 113.43554688 C153.53764595 115.17765442 153.53764595 115.17765442 153.54740906 116.95495605 C153.54907829 118.81610046 153.54907829 118.81610046 153.55078125 120.71484375 C153.55410965 122.00169067 153.55743805 123.2885376 153.56086731 124.61437988 C153.56683514 127.33098185 153.56870953 130.0475521 153.56811523 132.76416016 C153.5680135 136.23410567 153.58168741 139.70384708 153.59888744 143.1737442 C153.61271587 146.49994701 153.61209684 149.82611258 153.61328125 153.15234375 C153.62046677 154.39310669 153.62765228 155.63386963 153.63505554 156.91223145 C153.63197891 158.07363647 153.62890228 159.2350415 153.62573242 160.43164062 C153.62715744 161.44834839 153.62858246 162.46505615 153.63005066 163.51257324 C153.35713102 166.73701025 152.51618841 169.4127565 151.3828125 172.43359375 C152.67606194 171.94758194 152.67606194 171.94758194 153.99543762 171.45175171 C157.38830612 170.43194251 160.0526902 170.16856306 163.58081055 170.14306641 C164.78613937 170.1303067 165.9914682 170.117547 167.23332214 170.10440063 C168.52402115 170.10217499 169.81472015 170.09994934 171.14453125 170.09765625 C172.49966061 170.09121792 173.85478861 170.08448881 175.20991516 170.07748413 C178.04679581 170.06553862 180.88355498 170.06180024 183.72045898 170.06298828 C187.32691709 170.06319078 190.9325811 170.03594909 194.53885174 170.00144386 C197.33843951 169.97902049 200.13784123 169.97515548 202.93750954 169.97620773 C204.90425605 169.97274906 206.87094447 169.95117774 208.83757019 169.92910767 C217.02663661 169.97037364 226.2687411 170.29168534 232.38310242 176.44741821 C233.90440267 178.38158148 235.18021114 180.28818644 236.3828125 182.43359375 C236.9030172 183.27938995 236.9030172 183.27938995 237.43373108 184.14227295 C238.70354498 187.20792247 238.65962257 189.77796745 238.68920898 193.09472656 C238.6975325 193.7554567 238.70585602 194.41618683 238.71443176 195.09693909 C238.73848544 197.27692602 238.74729925 199.45661325 238.75390625 201.63671875 C238.76287819 203.1588347 238.77200014 204.68094977 238.78126526 206.20306396 C238.79774667 209.39402404 238.80545344 212.58487932 238.80834961 215.77587891 C238.81372369 219.84912588 238.85136548 223.92137654 238.89709377 227.9943428 C238.92695884 231.13952147 238.93407524 234.28446334 238.93507576 237.42977142 C238.93926165 238.93039244 238.95163015 240.43101524 238.97259331 241.93149567 C239.16787754 257.12213772 239.16787754 257.12213772 233.3828125 263.43359375 C226.12655944 270.68984681 219.03527654 271.77450783 209.17745972 271.82478333 C207.23336716 271.8109687 207.23336716 271.8109687 205.25 271.796875 C203.88575237 271.79635531 202.52150398 271.7968772 201.15725708 271.79838562 C198.3112659 271.79829636 195.46556069 271.78795901 192.61962891 271.76977539 C188.98379535 271.74704633 185.34837712 271.74655686 181.71249199 271.75329304 C178.9002416 271.75664379 176.0880848 271.74998288 173.2758522 271.7401638 C171.2873334 271.73448168 169.29879865 271.73574284 167.31027222 271.73713684 C165.48775436 271.72283882 165.48775436 271.72283882 163.62841797 271.70825195 C162.03246292 271.70134087 162.03246292 271.70134087 160.40426636 271.69429016 C157.13966315 271.41261439 154.44038226 270.58512116 151.3828125 269.43359375 C151.86850708 270.7486792 151.86850708 270.7486792 152.36401367 272.09033203 C154.01429711 277.91176848 153.68797681 283.92369718 153.68359375 289.92578125 C153.68787888 291.22629425 153.692164 292.52680725 153.69657898 293.86672974 C153.7040117 296.61187838 153.70377172 299.35689836 153.69848633 302.10205078 C153.69269903 305.59757706 153.70961852 309.0925722 153.732831 312.58801079 C153.75121856 315.95062183 153.74738081 319.31312038 153.74609375 322.67578125 C153.7553035 323.91979706 153.76451324 325.16381287 153.77400208 326.44552612 C153.71989705 336.6777182 152.36000867 344.21885179 145.2109375 351.7734375 C139.51027882 356.95031771 132.91489267 357.55040841 125.50439453 357.57885742 C124.36946564 357.58523727 123.23453674 357.59161713 122.06521606 357.59819031 C120.24629349 357.59985954 120.24629349 357.59985954 118.390625 357.6015625 C117.13071747 357.6048909 115.87080994 357.6082193 114.57272339 357.61164856 C111.91156472 357.61670396 109.25050824 357.61949079 106.58935547 357.61889648 C103.19807495 357.61879496 99.80700426 357.6324471 96.41577339 357.64966869 C93.1573987 357.66353394 89.89902516 357.66287923 86.640625 357.6640625 C85.43205841 357.67124802 84.22349182 357.67843353 82.978302 357.68583679 C76.75256929 357.66905295 71.33861052 357.28452189 65.3828125 355.43359375 C65.7128125 356.42359375 66.0428125 357.41359375 66.3828125 358.43359375 C66.4922332 360.55292917 66.5417972 362.67552568 66.55981445 364.79760742 C66.57264969 366.11294968 66.58548492 367.42829193 66.59870911 368.78349304 C66.60687856 370.22284568 66.6143219 371.6622026 66.62109375 373.1015625 C66.62516928 373.82800776 66.6292448 374.55445301 66.63344383 375.30291176 C66.65429366 379.15058735 66.66859808 382.99822743 66.67797852 386.84594727 C66.68901984 390.80583094 66.72339573 394.76514911 66.76315022 398.72483349 C66.78939389 401.78163136 66.79767733 404.83829631 66.80125999 407.89519691 C66.80610874 409.35394406 66.81767362 410.81268595 66.83629799 412.27132225 C66.94477455 421.33282499 66.62872286 428.05755302 60.8125 435.421875 C52.40384909 442.58401736 42.70386465 442.88649235 32.0703125 442.83203125 C30.82080811 442.83490143 29.57130371 442.83777161 28.28393555 442.84072876 C24.98661216 442.84327728 21.68972209 442.83131586 18.39245605 442.81445312 C16.38422043 442.80859786 14.3763781 442.81443671 12.36816406 442.82470703 C8.47703128 442.84333632 4.58647019 442.84096945 0.6953125 442.83203125 C-1.0832312 442.84114029 -1.0832312 442.84114029 -2.89770508 442.85043335 C-12.37313553 442.77100904 -20.65290779 441.7197516 -28.046875 435.421875 C-34.33600083 427.45877786 -34.16674097 419.79524058 -34.04296875 410.1015625 C-34.03803763 408.61803121 -34.03474346 407.13449367 -34.03300476 405.6509552 C-34.02539944 402.55689302 -34.00493927 399.46329921 -33.97387695 396.36938477 C-33.93413079 392.40375998 -33.91623588 388.43843762 -33.90656757 384.47263622 C-33.89660281 380.68223751 -33.8767335 376.89191221 -33.85546875 373.1015625 C-33.852073 372.37979513 -33.84867725 371.65802776 -33.8451786 370.91438866 C-33.83360588 368.87542358 -33.81408524 366.83650827 -33.79418945 364.79760742 C-33.77942314 363.05842293 -33.77942314 363.05842293 -33.76435852 361.28410339 C-33.6171875 358.43359375 -33.6171875 358.43359375 -32.6171875 355.43359375 C-34.18919922 355.92037598 -34.18919922 355.92037598 -35.79296875 356.41699219 C-41.74709555 357.89574164 -47.70324697 357.71976404 -53.8046875 357.69921875 C-55.69030396 357.70208893 -55.69030396 357.70208893 -57.61401367 357.70501709 C-60.26332582 357.7063739 -62.91226497 357.70372987 -65.56152344 357.69433594 C-68.93707588 357.68294235 -72.31231014 357.68951163 -75.68785095 357.70148087 C-78.93514078 357.7104943 -82.1823935 357.7041616 -85.4296875 357.69921875 C-86.63197998 357.70326721 -87.83427246 357.70731567 -89.07299805 357.71148682 C-99.70501893 357.65242003 -107.47086382 356.57991743 -115.3046875 348.74609375 C-121.24939828 341.04684728 -121.04948524 331.99825286 -120.98046875 322.67578125 C-120.98121651 320.72214157 -120.98121651 320.72214157 -120.98197937 318.72903442 C-120.98189022 315.98736801 -120.97157556 313.24599913 -120.95336914 310.50439453 C-120.93063876 307.00656684 -120.93015212 303.50917092 -120.93688679 300.0112896 C-120.94104716 296.64940504 -120.92904594 293.28765101 -120.91796875 289.92578125 C-120.91888016 288.67771698 -120.91979156 287.42965271 -120.92073059 286.14376831 C-120.87239233 280.20206939 -120.68432208 275.03064737 -118.6171875 269.43359375 C-119.47902649 269.75760162 -120.34086548 270.0816095 -121.2288208 270.41543579 C-124.6268917 271.43650973 -127.29739743 271.69865723 -130.83105469 271.72412109 C-132.03961121 271.7368808 -133.24816772 271.7496405 -134.49334717 271.76278687 C-136.43410126 271.76612534 -136.43410126 271.76612534 -138.4140625 271.76953125 C-139.77158749 271.77596887 -141.12911112 271.78269793 -142.4866333 271.78970337 C-145.32771007 271.8016476 -148.16866554 271.8053873 -151.00976562 271.80419922 C-154.62528883 271.80399652 -158.24002167 271.83125922 -161.85535812 271.86574364 C-164.65919464 271.88814051 -167.46284503 271.89203285 -170.26676178 271.89097977 C-172.23964785 271.89444447 -174.21247581 271.91602973 -176.1852417 271.93807983 C-184.72639862 271.89504229 -192.23029163 270.96982551 -199.0546875 265.46875 C-199.5703125 264.81777344 -200.0859375 264.16679687 -200.6171875 263.49609375 C-201.1534375 262.84769531 -201.6896875 262.19929688 -202.2421875 261.53125 C-205.20064852 257.01791601 -205.87232011 253.20501914 -205.90771484 247.8425293 C-205.92047455 246.5273381 -205.93323425 245.21214691 -205.94638062 243.85710144 C-205.94943873 242.4281733 -205.95166625 240.99924317 -205.953125 239.5703125 C-205.95955796 238.09446587 -205.96628669 236.61862049 -205.97329712 235.14277649 C-205.98525492 232.05194139 -205.98897957 228.96121792 -205.98779297 225.87036133 C-205.98759003 221.92618628 -206.01487233 217.98273376 -206.04933739 214.03872967 C-206.07167028 210.99049142 -206.07562855 207.94242519 -206.07457352 204.89411354 C-206.07692063 203.44096198 -206.08569371 201.98780504 -206.10123825 200.53473473 C-206.18844723 191.5395365 -205.93329896 184.66430978 -199.9765625 177.4453125 C-199.44546875 177.00832031 -198.914375 176.57132813 -198.3671875 176.12109375 C-197.58601563 175.44626953 -197.58601563 175.44626953 -196.7890625 174.7578125 C-188.88836801 169.94066244 -181.52534459 170.00606784 -172.484375 170.0703125 C-171.12012737 170.07083219 -169.75587898 170.0703103 -168.39163208 170.06880188 C-165.5456409 170.06889114 -162.69993569 170.07922849 -159.85400391 170.09741211 C-156.21817035 170.12014117 -152.58275212 170.12063064 -148.94686699 170.11389446 C-146.1346166 170.11054371 -143.3224598 170.11720462 -140.5102272 170.1270237 C-138.5217084 170.13270582 -136.53317365 170.13144466 -134.54464722 170.13005066 C-133.32963531 170.13958267 -132.11462341 170.14911469 -130.86279297 170.15893555 C-129.26683792 170.16584663 -129.26683792 170.16584663 -127.63864136 170.17289734 C-124.37403815 170.45457311 -121.67475726 171.28206634 -118.6171875 172.43359375 C-118.94098389 171.5523584 -119.26478027 170.67112305 -119.59838867 169.76318359 C-121.22908587 164.01155751 -120.92237714 158.09111605 -120.91796875 152.16015625 C-120.92225388 150.88183929 -120.926539 149.60352234 -120.93095398 148.28646851 C-120.93838588 145.58839758 -120.93814734 142.89045757 -120.93286133 140.19238281 C-120.92707423 136.75738704 -120.94399339 133.32293182 -120.967206 129.88802528 C-120.9855966 126.58288106 -120.98175575 123.27785117 -120.98046875 119.97265625 C-120.9896785 118.75051422 -120.99888824 117.52837219 -121.00837708 116.26919556 C-120.96259677 107.75849945 -120.30845053 99.63840375 -114.3671875 93.05859375 C-113.82578125 92.43210937 -113.284375 91.805625 -112.7265625 91.16015625 C-105.4752648 85.2248348 -97.29433853 86.02529041 -88.41796875 86.10546875 C-86.93540133 86.10853071 -85.45283102 86.1104035 -83.97026062 86.11114502 C-80.8745103 86.11573075 -77.77902261 86.13009247 -74.68334961 86.15234375 C-70.71891965 86.18069899 -66.75469529 86.1915649 -62.79017353 86.19602585 C-59.73353532 86.20018448 -56.67693839 86.2100045 -53.62032127 86.22190094 C-52.15831009 86.2275886 -50.696295 86.23235223 -49.23427773 86.23616791 C-47.19302615 86.24305371 -45.1518047 86.25758715 -43.1105957 86.27246094 C-41.95034378 86.27928894 -40.79009186 86.28611694 -39.59468079 86.29315186 C-37.08424503 86.41156366 -35.00653875 86.69928133 -32.6171875 87.43359375 C-32.9471875 86.44359375 -33.2771875 85.45359375 -33.6171875 84.43359375 C-33.7266082 82.31425833 -33.7761722 80.19166182 -33.79418945 78.06958008 C-33.81344231 76.0965667 -33.81344231 76.0965667 -33.83308411 74.08369446 C-33.84125356 72.64434182 -33.8486969 71.2049849 -33.85546875 69.765625 C-33.85954428 69.03917974 -33.8636198 68.31273449 -33.86781883 67.56427574 C-33.88866866 63.71660015 -33.90297308 59.86896007 -33.91235352 56.02124023 C-33.92339484 52.06135656 -33.95777073 48.10203839 -33.99752522 44.14235401 C-34.02376889 41.08555614 -34.03205233 38.02889119 -34.03563499 34.97199059 C-34.04048374 33.51324344 -34.05204862 32.05450155 -34.07067299 30.59586525 C-34.17892111 21.55344546 -33.90937137 14.74921805 -28.01171875 7.4453125 C-19.54482507 0.3582089 -10.72162747 -0.02555879 0 0 Z M-21.6171875 98.43359375 C-21.45485626 99.29000961 -21.29252502 100.14642548 -21.12527466 101.02879333 C-20.62473223 104.38303491 -20.49022512 107.52153311 -20.48779297 110.91040039 C-20.48464081 112.17513687 -20.48148865 113.43987335 -20.47824097 114.74293518 C-20.48003084 116.10987381 -20.48208182 117.47681212 -20.484375 118.84375 C-20.48370061 120.25809241 -20.48272945 121.67243471 -20.48147583 123.08677673 C-20.48000571 126.04296986 -20.48213165 128.99913267 -20.48681641 131.95532227 C-20.49251852 135.73694549 -20.48922729 139.51849781 -20.48324394 143.30011845 C-20.47962427 146.21781444 -20.48078329 149.13549372 -20.48337173 152.05319023 C-20.48403684 153.44739223 -20.48322718 154.84159577 -20.48089218 156.23579597 C-20.47834202 158.18592422 -20.48292044 160.13605782 -20.48779297 162.08618164 C-20.48858856 163.19393448 -20.48938416 164.30168732 -20.49020386 165.44300842 C-20.60812293 168.22011446 -20.98534499 170.73200544 -21.6171875 173.43359375 C-20.7516626 173.10834717 -19.8861377 172.78310059 -18.99438477 172.44799805 C-12.9992718 170.74863799 -6.75888513 171.16901564 -0.58203125 171.203125 C0.78364519 171.20431925 2.14932246 171.20476944 3.51499939 171.20451355 C6.36690469 171.20607143 9.21868322 171.21430779 12.07055664 171.2277832 C15.71417926 171.24478807 19.35766318 171.24859659 23.00132084 171.24783802 C25.81783862 171.24811075 28.63432648 171.25360818 31.45083427 171.26083946 C33.44378675 171.26553851 35.43674547 171.26729544 37.42970276 171.26899719 C38.64794235 171.27537704 39.86618195 171.2817569 41.12133789 171.28833008 C42.18832413 171.29214188 43.25531036 171.29595367 44.35462952 171.29988098 C47.43568127 171.43592823 50.35445802 171.86369039 53.3828125 172.43359375 C53.38059189 171.58025955 53.37837128 170.72692535 53.37608337 169.84773254 C53.35603299 161.79956066 53.34081413 153.75139719 53.33100033 145.70320606 C53.32578533 141.56571702 53.3187128 137.42824864 53.30737305 133.29077148 C53.29649501 129.29669174 53.29052523 125.30263185 53.28793526 121.30853844 C53.28608987 119.78594335 53.28248632 118.26334933 53.27708244 116.74076271 C53.26980677 114.60555307 53.26882431 112.47042515 53.26928711 110.33520508 C53.2670665 109.12053055 53.26484589 107.90585602 53.26255798 106.65437317 C53.36974285 103.78363837 53.71858432 101.22126297 54.3828125 98.43359375 C53.5165625 98.75811523 52.6503125 99.08263672 51.7578125 99.41699219 C45.77424125 101.11296066 39.54901029 100.71844985 33.3828125 100.69921875 C32.01953055 100.70056836 30.65624907 100.70251136 29.29296875 100.70501709 C26.44526557 100.70795444 23.59768845 100.70371572 20.75 100.69433594 C17.11537642 100.68294213 13.48104831 100.68950909 9.84643555 100.70148087 C7.03415739 100.70873718 4.2219483 100.7063943 1.40966797 100.70122528 C-0.57715041 100.69925839 -2.56397156 100.70529037 -4.55078125 100.71148682 C-10.60655521 100.68014658 -15.91783277 100.56873148 -21.6171875 98.43359375 Z M-107.6171875 184.43359375 C-107.45485626 184.96057861 -107.29252502 185.48756348 -107.12527466 186.03051758 C-106.49161068 189.0275286 -106.48991041 191.8180422 -106.48779297 194.8828125 C-106.48464081 196.19096924 -106.48148865 197.49912598 -106.47824097 198.84692383 C-106.48003091 200.27164748 -106.4820819 201.69637082 -106.484375 203.12109375 C-106.48370113 204.58553076 -106.48273041 206.04996767 -106.48147583 207.5144043 C-106.48000278 210.58090278 -106.48214081 213.6473721 -106.48681641 216.71386719 C-106.49251346 220.64137595 -106.48923236 224.56881637 -106.48324394 228.49632263 C-106.47962774 231.51949578 -106.48078179 234.54265277 -106.48337173 237.56582642 C-106.48403807 239.01388558 -106.48322283 240.46194622 -106.48089218 241.91000366 C-106.47834835 243.93479382 -106.482914 245.95958913 -106.48779297 247.984375 C-106.48858856 249.13591064 -106.48938416 250.28744629 -106.49020386 251.47387695 C-106.59785022 253.98288314 -106.88194546 256.04673691 -107.6171875 258.43359375 C-106.32874184 258.19058784 -106.32874184 258.19058784 -105.01426697 257.94267273 C-101.70537292 257.44680903 -98.60693132 257.30007738 -95.26391602 257.28833008 C-94.02565567 257.28195023 -92.78739532 257.27557037 -91.51161194 257.26899719 C-90.17310628 257.26746838 -88.83460009 257.26635449 -87.49609375 257.265625 C-86.10896267 257.26240738 -84.72183192 257.25904293 -83.33470154 257.25553894 C-80.43398248 257.24956828 -77.53329313 257.24769697 -74.63256836 257.24829102 C-70.92955793 257.24839265 -67.22673917 257.23472975 -63.52377415 257.21751881 C-60.66089515 257.20636109 -57.798062 257.20437294 -54.9351635 257.20490074 C-53.57051876 257.20372672 -52.2058726 257.19933766 -50.84124947 257.19156837 C-37.73155158 257.12390087 -37.73155158 257.12390087 -31.6171875 259.43359375 C-31.77984604 258.75283279 -31.94250458 258.07207184 -32.11009216 257.37068176 C-32.69078657 254.0073091 -32.73686438 250.85426088 -32.73071289 247.44018555 C-32.73085892 246.75670547 -32.73100494 246.0732254 -32.7311554 245.36903381 C-32.73046212 243.12359374 -32.72269724 240.87823798 -32.71484375 238.6328125 C-32.71297749 237.07054184 -32.71155457 235.5082706 -32.71055603 233.94599915 C-32.70674722 229.84429291 -32.69693096 225.74262236 -32.68585205 221.64093018 C-32.6756027 217.45138024 -32.67105087 213.2618245 -32.66601562 209.07226562 C-32.65530717 200.85935866 -32.63825047 192.64648065 -32.6171875 184.43359375 C-33.65498352 184.67709061 -33.65498352 184.67709061 -34.71374512 184.92550659 C-37.8908286 185.48147951 -40.8467633 185.56071437 -44.07226562 185.56298828 C-45.99951477 185.56771652 -45.99951477 185.56771652 -47.96569824 185.57254028 C-49.35994501 185.57075028 -50.75419147 185.56869927 -52.1484375 185.56640625 C-53.5866294 185.56708041 -55.02482119 185.56805137 -56.4630127 185.56930542 C-59.47226042 185.57077711 -62.4814784 185.56864485 -65.49072266 185.56396484 C-69.3407554 185.55826787 -73.19071841 185.56154971 -77.0407486 185.56753731 C-80.00905886 185.5711572 -82.97735269 185.56999776 -85.94566345 185.56740952 C-87.36498523 185.5667442 -88.78430852 185.56755481 -90.20362854 185.56988907 C-92.18978851 185.572439 -94.17595374 185.56786104 -96.16210938 185.56298828 C-97.85491028 185.56179489 -97.85491028 185.56179489 -99.58190918 185.56057739 C-102.37665472 185.44365666 -104.89922065 185.07130711 -107.6171875 184.43359375 Z M65.3828125 184.43359375 C65.38503311 185.29945602 65.38725372 186.1653183 65.38954163 187.05741882 C65.40959112 195.22331994 65.42481042 203.38921278 65.43462467 211.55513287 C65.4398399 215.75315591 65.44691288 219.95115859 65.45825195 224.14916992 C65.46912913 228.20160433 65.47509959 232.25401917 65.47768974 236.30646706 C65.47953528 237.85139079 65.48313913 239.39631348 65.48854256 240.94122887 C65.49581709 243.10757118 65.49680074 245.27383295 65.49633789 247.44018555 C65.4985585 248.67262497 65.50077911 249.90506439 65.50306702 251.17485046 C65.39657372 254.06068229 65.05220878 256.63202642 64.3828125 259.43359375 C65.24382568 259.10834717 66.10483887 258.78310059 66.99194336 258.44799805 C73.05580951 256.72936421 79.3894463 257.16755706 85.63671875 257.203125 C87.02481544 257.20431919 88.41291295 257.20476946 89.80101013 257.20451355 C92.69999301 257.20607159 95.59885121 257.21430922 98.49780273 257.2277832 C102.20195894 257.24478782 105.90597873 257.24859661 109.61016941 257.24783802 C112.47301012 257.24811072 115.33582139 257.25360775 118.19865227 257.26083946 C119.56411454 257.26400682 120.92958011 257.26598899 122.29504585 257.26673317 C124.20655655 257.26891646 126.11805444 257.27848158 128.02954102 257.28833008 C129.11429214 257.29214188 130.19904327 257.29595367 131.31666565 257.29988098 C134.41184506 257.43485984 137.34093263 257.85988328 140.3828125 258.43359375 C140.13882469 257.65644012 140.13882469 257.65644012 139.88990784 256.86358643 C139.23381679 253.7196087 139.26350835 250.76670289 139.26928711 247.55371094 C139.26914108 246.87037689 139.26899506 246.18704285 139.2688446 245.48300171 C139.26953935 243.23212471 139.27731118 240.98133123 139.28515625 238.73046875 C139.28702199 237.16676885 139.28844516 235.60306837 139.28944397 234.03936768 C139.29325688 229.92942686 139.3030767 225.81952154 139.31414795 221.70959473 C139.32438843 217.51343262 139.32894724 213.31726476 139.33398438 209.12109375 C139.34470008 200.89191082 139.36176177 192.6627567 139.3828125 184.43359375 C138.85360703 184.59592499 138.32440155 184.75825623 137.77915955 184.92550659 C134.81845293 185.55325248 132.06929542 185.56085777 129.04125977 185.56298828 C127.11389732 185.56771652 127.11389732 185.56771652 125.14759827 185.57254028 C123.74813808 185.57075014 122.3486782 185.5686991 120.94921875 185.56640625 C119.50959761 185.56708021 118.06997658 185.568051 116.63035583 185.56930542 C113.61513179 185.57077854 110.59993739 185.56864052 107.5847168 185.56396484 C103.72680832 185.55827291 99.86896949 185.5615456 96.01106358 185.56753731 C93.03846211 185.57115768 90.06587704 185.56999745 87.09327507 185.56740952 C85.6711622 185.56674407 84.24904783 185.56755528 82.82693672 185.56988907 C80.83587804 185.57243922 78.84481412 185.56786082 76.85375977 185.56298828 C75.72220963 185.56219269 74.59065948 185.56139709 73.42481995 185.56057739 C70.62741568 185.44380431 68.10324684 185.07218815 65.3828125 184.43359375 Z M-21.6171875 268.43359375 C-21.45485626 269.2881163 -21.29252502 270.14263885 -21.12527466 271.02305603 C-20.62085033 274.40900698 -20.49020951 277.58111841 -20.48779297 281.00219727 C-20.48464081 282.2869545 -20.48148865 283.57171173 -20.47824097 284.895401 C-20.48003084 286.28443435 -20.48208181 287.67346739 -20.484375 289.0625 C-20.48370063 290.49926266 -20.4827295 291.93602521 -20.48147583 293.37278748 C-20.48000558 296.37605888 -20.48213205 299.37930044 -20.48681641 302.38256836 C-20.49251845 306.22472536 -20.48922742 310.06681257 -20.48324394 313.90896702 C-20.47962454 316.87298607 -20.48078317 319.83698867 -20.48337173 322.80100822 C-20.48403692 324.21753892 -20.48322691 325.63407113 -20.48089218 327.05060005 C-20.47834247 329.03186132 -20.48291999 331.01312785 -20.48779297 332.99438477 C-20.48858856 334.1199025 -20.48938416 335.24542023 -20.49020386 336.40504456 C-20.60727292 339.19713193 -20.98035437 341.71809444 -21.6171875 344.43359375 C-20.3178125 343.94681152 -20.3178125 343.94681152 -18.9921875 343.45019531 C-13.00861625 341.75422684 -6.78338529 342.14873765 -0.6171875 342.16796875 C0.74609445 342.16661914 2.10937593 342.16467614 3.47265625 342.16217041 C6.32035943 342.15923306 9.16793655 342.16347178 12.015625 342.17285156 C15.65024858 342.18424537 19.28457669 342.17767841 22.91918945 342.16570663 C25.73146761 342.15845032 28.5436767 342.1607932 31.35595703 342.16596222 C33.34277541 342.16792911 35.32959656 342.16189713 37.31640625 342.15570068 C43.37218021 342.18704092 48.68345777 342.29845602 54.3828125 344.43359375 C54.22048126 343.74362305 54.05815002 343.05365234 53.89089966 342.34277344 C53.33053579 339.13427039 53.25567877 336.14409913 53.25341797 332.88671875 C53.25026581 331.58186523 53.24711365 330.27701172 53.24386597 328.93261719 C53.24565597 327.5162757 53.24770698 326.09993452 53.25 324.68359375 C53.24932586 323.22298161 53.24835491 321.76236957 53.24710083 320.30175781 C53.24562905 317.24543181 53.24776172 314.18913509 53.25244141 311.1328125 C53.25813838 307.22224597 53.2548566 303.31174809 53.24886894 299.40118408 C53.24524932 296.38655076 53.24640836 293.37193362 53.24899673 290.3572998 C53.24966212 288.91564933 53.24885118 287.47399737 53.24651718 286.03234863 C53.24396769 284.01505564 53.24854476 281.99775747 53.25341797 279.98046875 C53.25421356 278.83416992 53.25500916 277.68787109 53.25582886 276.50683594 C53.37192514 273.69708839 53.74007696 271.16546899 54.3828125 268.43359375 C53.5165625 268.75811523 52.6503125 269.08263672 51.7578125 269.41699219 C45.77424125 271.11296066 39.54901029 270.71844985 33.3828125 270.69921875 C32.01953055 270.70056836 30.65624907 270.70251136 29.29296875 270.70501709 C26.44526557 270.70795444 23.59768845 270.70371572 20.75 270.69433594 C17.11537642 270.68294213 13.48104831 270.68950909 9.84643555 270.70148087 C7.03415739 270.70873718 4.2219483 270.7063943 1.40966797 270.70122528 C-0.57715041 270.69925839 -2.56397156 270.70529037 -4.55078125 270.71148682 C-10.60655521 270.68014658 -15.91783277 270.56873148 -21.6171875 268.43359375 Z " fill="#04C065" transform="translate(233.6171875,28.56640625)"/>
<path d="M0 0 C0.66 0.33 1.32 0.66 2 1 C-1.3 4.3 -4.6 7.6 -8 11 C-8 7.45459812 -7.40614728 6.93992636 -5.125 4.375 C-4.59132812 3.76398437 -4.05765625 3.15296875 -3.5078125 2.5234375 C-2 1 -2 1 0 0 Z " fill="#5ED69C" transform="translate(211,32)"/>
<path d="M0 0 C-1.38188453 3.21043882 -2.92421903 5.04936365 -5.625 7.25 C-6.57246094 8.03117187 -6.57246094 8.03117187 -7.5390625 8.828125 C-8.02117187 9.21484375 -8.50328125 9.6015625 -9 10 C-7.6834994 5.81113445 -4.97532335 0 0 0 Z " fill="#59D599" transform="translate(125,118)"/>
</svg>
